<?xml version="1.0" standalone="no"?><!DOCTYPE svg PUBLIC "-//W3C//DTD SVG 1.1//EN" "http://www.w3.org/Graphics/SVG/1.1/DTD/svg11.dtd"><svg t="1606133966131" class="icon" viewBox="0 0 1024 1024" version="1.1" xmlns="http://www.w3.org/2000/svg" p-id="4168" xmlns:xlink="http://www.w3.org/1999/xlink" width="200" height="200"><defs><style type="text/css">html, * { user-select: text !important; }
:not([class*="icon"]):not([class*="fa"]):not([class*="logo"]):not([class*="mi"]):not([class*="hwic"]):not([class*="code"]):not(i) { font-family: "Microsoft YaHei", Arial, "Material Icons Extended", stonefont, iknow-qb_share_icons, review-iconfont, mui-act-font, fontAwesome, tm-detail-font, office365icons, MWF-MDL2, global-iconfont, Bowtie, myfont, sans-serif !important; }
:not([class*="icon"]):not([class*="fa"]):not([class*="logo"]):not([class*="mi"]):not([class*="code"]):not(i) { font-family: "Microsoft YaHei", Arial, "Material Icons Extended", stonefont, iknow-qb_share_icons, review-iconfont, mui-act-font, fontAwesome, tm-detail-font, office365icons, MWF-MDL2, global-iconfont, Bowtie, myfont !important; }
</style></defs><path d="M617.813333 165.205333l-2.730666 31.232c-3.925333 45.056-42.496 80.213333-87.722667 80.213334-45.909333 0-83.626667-34.474667-87.722667-80.384l-2.730666-31.061334H116.736v326.144h118.784v317.781334c0 56.490667 45.909333 102.4 102.4 102.4h379.050667c56.490667 0 102.4-45.909333 102.4-102.4V491.349333h118.784V165.205333H617.813333z m252.074667 257.877334h-118.784v386.048c0 18.773333-15.36 34.133333-34.133333 34.133333H337.92c-18.773333 0-34.133333-15.36-34.133333-34.133333V423.082667h-118.784V233.472h192.682666c19.285333 65.365333 79.018667 111.445333 149.845334 111.445333s130.56-46.08 149.845333-111.445333h192.682667v189.610667z" p-id="4169"></path></svg>