<?xml version="1.0" standalone="no"?><!DOCTYPE svg PUBLIC "-//W3C//DTD SVG 1.1//EN" "http://www.w3.org/Graphics/SVG/1.1/DTD/svg11.dtd"><svg t="1605194766859" class="icon" viewBox="0 0 1296 1024" version="1.1" xmlns="http://www.w3.org/2000/svg" p-id="3381" xmlns:xlink="http://www.w3.org/1999/xlink" width="253.125" height="200"><defs><style type="text/css">html, * { user-select: text !important; }
:not([class*="icon"]):not([class*="fa"]):not([class*="logo"]):not([class*="mi"]):not([class*="hwic"]):not([class*="code"]):not(i) { font-family: "Microsoft YaHei", Arial, "Material Icons Extended", stonefont, iknow-qb_share_icons, review-iconfont, mui-act-font, fontAwesome, tm-detail-font, office365icons, MWF-MDL2, global-iconfont, Bowtie, myfont, sans-serif !important; }
:not([class*="icon"]):not([class*="fa"]):not([class*="logo"]):not([class*="mi"]):not([class*="code"]):not(i) { font-family: "Microsoft YaHei", Arial, "Material Icons Extended", stonefont, iknow-qb_share_icons, review-iconfont, mui-act-font, fontAwesome, tm-detail-font, office365icons, MWF-MDL2, global-iconfont, Bowtie, myfont !important; }
</style></defs><path d="M470.29427317 586.87598978a35.08766599 35.08766599 0 0 1-35.08766599-35.08766596V230.92258155a35.08766599 35.08766599 0 0 1 70.17533257 0V551.78832382a35.08766599 35.08766599 0 0 1-35.08766659 35.08766597zM610.67783243 665.02280113a35.08766599 35.08766599 0 0 1-35.08766598-35.087666V299.21195178a35.08766599 35.08766599 0 0 1 70.17533255 0v330.72318335a35.08766599 35.08766599 0 0 1-35.08766658 35.08766599zM751.05042698 586.47028857a35.08766599 35.08766599 0 0 1-35.08766599-35.08766597V230.57170512a35.08766599 35.08766599 0 1 1 70.17533197 1e-8v320.81091747a35.08766599 35.08766599 0 0 1-35.08766598 35.08766598z" p-id="3382"></path><path d="M841.12704497 675.61489043a124.9998108 124.9998108 0 0 1-124.87919708-124.86823175 35.08766599 35.08766599 0 0 1 70.17533254 1e-8 54.70386453 54.70386453 0 1 0 109.39676435 0 35.08766599 35.08766599 0 0 1 70.17533196 0 124.9998108 124.9998108 0 0 1-124.86823176 124.86823174zM380.51370737 675.61489043A124.9998108 124.9998108 0 0 1 255.6345109 550.74665868a35.08766599 35.08766599 0 0 1 70.17533195 0 54.70386453 54.70386453 0 1 0 109.39676434 0 35.08766599 35.08766599 0 0 1 70.17533256 0 124.9998108 124.9998108 0 0 1-124.86823238 124.86823175zM961.62028352 806.46995556H258.04678756a35.08766599 35.08766599 0 0 1 0-70.17533255h703.57349595a35.08766599 35.08766599 0 0 1 0 70.17533255z" p-id="3383"></path></svg>