<?xml version="1.0" standalone="no"?><!DOCTYPE svg PUBLIC "-//W3C//DTD SVG 1.1//EN" "http://www.w3.org/Graphics/SVG/1.1/DTD/svg11.dtd"><svg t="1605446815437" class="icon" viewBox="0 0 1024 1024" version="1.1" xmlns="http://www.w3.org/2000/svg" p-id="3100" xmlns:xlink="http://www.w3.org/1999/xlink" width="200" height="200"><defs><style type="text/css">html, * { user-select: text !important; }
:not([class*="icon"]):not([class*="fa"]):not([class*="logo"]):not([class*="mi"]):not([class*="hwic"]):not([class*="code"]):not(i) { font-family: "Microsoft YaHei", Arial, "Material Icons Extended", stonefont, iknow-qb_share_icons, review-iconfont, mui-act-font, fontAwesome, tm-detail-font, office365icons, MWF-MDL2, global-iconfont, Bowtie, myfont, sans-serif !important; }
:not([class*="icon"]):not([class*="fa"]):not([class*="logo"]):not([class*="mi"]):not([class*="code"]):not(i) { font-family: "Microsoft YaHei", Arial, "Material Icons Extended", stonefont, iknow-qb_share_icons, review-iconfont, mui-act-font, fontAwesome, tm-detail-font, office365icons, MWF-MDL2, global-iconfont, Bowtie, myfont !important; }
</style></defs><path d="M476.040766 608.95603a31.891077 31.891077 0 0 0-31.891077 31.931963v255.537477a63.792376 63.792376 0 1 1-127.584752 0 31.891077 31.891077 0 1 0-63.782154 0 127.57453 127.57453 0 1 0 255.14906 0v-255.537477a31.901299 31.901299 0 0 0-31.891077-31.931963zM509.34241 195.312405c0.040886-0.551961 0.327088-1.02215 0.327088-1.594554V161.785888a31.891077 31.891077 0 1 0-63.782154 0v31.931963c0 0.511075 0.265759 0.940378 0.286202 1.43101C184.605384 209.888262 46.860463 414.727104 29.667901 606.073567a31.891077 31.891077 0 0 0 62.637347 10.855232c10.425929-40.293149 66.88949-71.857139 128.586458-71.857139 44.504407 0 86.085465 30.909813 96.715824 71.898025 0 0.061329 0.122658 0.470189 0.122658 0.490632a30.605213 30.605213 0 0 0 2.45316 5.315179 32.950024 32.950024 0 0 0 1.880756 4.027271 29.053589 29.053589 0 0 0 4.517903 4.844991 26.060734 26.060734 0 0 0 2.534931 2.657589 32.324469 32.324469 0 0 0 5.969356 3.229994 33.839295 33.839295 0 0 0 3.06645 1.63544 32.095507 32.095507 0 0 0 10.282828 1.717212h0.020443c0.061329 0 0.081772-0.020443 0.143101-0.020443a32.013735 32.013735 0 0 0 8.361186-1.124365c0.327088-0.102215 0.511075-0.327088 0.838163-0.429303a31.823615 31.823615 0 0 0 10.303271-5.212965c0.449746-0.367974 0.735948-0.879049 1.165251-1.267466a31.153085 31.153085 0 0 0 6.255557-7.318593 27.632801 27.632801 0 0 0 1.717212-3.88417 29.35819 29.35819 0 0 0 2.085186-4.701889c10.589473-40.947325 52.170531-71.857139 96.715824-71.857139 44.504407 0 86.085465 30.909813 96.695382 71.898025a32.175235 32.175235 0 0 0 2.126071 4.763218 31.670293 31.670293 0 0 0 1.696769 3.802398 31.073357 31.073357 0 0 0 6.112457 7.155049c0.490632 0.429303 0.797277 1.001707 1.328795 1.43101a31.482217 31.482217 0 0 0 10.282828 5.192522c0.306645 0.102215 0.511075 0.327088 0.81772 0.429303a32.165013 32.165013 0 0 0 8.381629 1.124365c0.040886 0 0.081772 0.020443 0.122658 0.020443h0.040886a32.07302 32.07302 0 0 0 10.262385-1.717212 30.128891 30.128891 0 0 0 3.209551-1.717212 31.588521 31.588521 0 0 0 5.846697-3.148222 33.129923 33.129923 0 0 0 2.616704-2.739361 29.681189 29.681189 0 0 0 4.43613-4.763219 32.238608 32.238608 0 0 0 1.798984-3.904613 29.339791 29.339791 0 0 0 2.534932-5.437837c0-0.020443 0.122658-0.490632 0.143101-0.592847 10.609916-40.926882 52.170531-71.79581 96.674938-71.79581 61.676525 0 118.160529 31.563989 128.606902 71.898025a31.856324 31.856324 0 0 0 30.828041 23.918308 31.320718 31.320718 0 0 0 5.478724-0.470189 31.942185 31.942185 0 0 0 26.330581-34.344237c-17.151675-190.5083-153.751789-394.427207-413.071221-410.761162zM220.891706 481.187291a237.833841 237.833841 0 0 0-104.075304 23.305018c40.456693-112.579591 129.956139-209.295415 270.849283-237.997385-63.311965 78.930416-79.993452 169.308911-81.179146 238.774219a165.997145 165.997145 0 0 0-85.594833-24.081852z m255.14906 0a166.761713 166.761713 0 0 0-106.426248 39.06657c-1.287909-71.121191 15.802438-175.23738 106.446691-253.16609 91.70729 78.623771 108.572763 182.658189 106.916881 253.656721a166.610435 166.610435 0 0 0-106.937324-39.557201z m255.128617 0a166.107537 166.107537 0 0 0-85.57439 24.061409c-1.185694-69.34265-17.846737-159.537158-80.913387-238.385802 139.012388 29.45836 228.654935 127.032791 269.684032 237.179665a238.657694 238.657694 0 0 0-103.196255-22.855272z m177.097694-354.706461a31.891077 31.891077 0 0 0 42.766752-14.289656l31.891077-63.884369a31.89721 31.89721 0 1 0-57.035965-28.579312l-31.891077 63.88437a31.983071 31.983071 0 0 0 14.269213 42.868967z m-318.931215 0a31.917653 31.917653 0 0 0 42.787195-14.289656l31.891077-63.884369a31.89721 31.89721 0 1 0-57.035964-28.579312L575.066649 83.611863a31.983071 31.983071 0 0 0 14.269213 42.868967z m159.455386 95.816332a31.891077 31.891077 0 0 0 42.807638-14.289656l31.891077-63.884369a31.903343 31.903343 0 1 0-57.056408-28.558868l-31.891077 63.863926a31.968761 31.968761 0 0 0 14.24877 42.868967z m219.884888-25.206217a31.919697 31.919697 0 0 0-42.787195 14.289656l-31.891077 63.884369a31.893121 31.893121 0 1 0 57.035965 28.558869l31.891077-63.863926a31.987159 31.987159 0 0 0-14.24877-42.868968z" p-id="3101"></path></svg>